<svg fill="white" width="1550.000000" height="1188.000000" viewBox="121.000000 -2390.000000 1550.000000 1188.000000" xmlns="http://www.w3.org/2000/svg"><path d="M1671.000000 -2158.000000C1671.000000 -2131.333333 1661.666667 -2108.666667 1643.000000 -2090.000000L919.000000 -1366.000000L783.000000 -1230.000000C764.333333 -1211.333333 741.666667 -1202.000000 715.000000 -1202.000000C688.333333 -1202.000000 665.666667 -1211.333333 647.000000 -1230.000000L511.000000 -1366.000000L149.000000 -1728.000000C130.333333 -1746.666667 121.000000 -1769.333333 121.000000 -1796.000000C121.000000 -1822.666667 130.333333 -1845.333333 149.000000 -1864.000000L285.000000 -2000.000000C303.666667 -2018.666667 326.333333 -2028.000000 353.000000 -2028.000000C379.666667 -2028.000000 402.333333 -2018.666667 421.000000 -2000.000000L715.000000 -1705.000000L1371.000000 -2362.000000C1389.666667 -2380.666667 1412.333333 -2390.000000 1439.000000 -2390.000000C1465.666667 -2390.000000 1488.333333 -2380.666667 1507.000000 -2362.000000L1643.000000 -2226.000000C1661.666667 -2207.333333 1671.000000 -2184.666667 1671.000000 -2158.000000ZM1671.000000 -2158.000000"></path></svg>
