<svg width="1152.000000" height="1408.000000" viewBox="0.000000 -2816.000000 1152.000000 1408.000000" xmlns="http://www.w3.org/2000/svg"><path fill="#D0D0D0" d="M320.000000 -2176.000000L832.000000 -2176.000000L832.000000 -2368.000000C832.000000 -2438.666667 807.000000 -2499.000000 757.000000 -2549.000000C707.000000 -2599.000000 646.666667 -2624.000000 576.000000 -2624.000000C505.333333 -2624.000000 445.000000 -2599.000000 395.000000 -2549.000000C345.000000 -2499.000000 320.000000 -2438.666667 320.000000 -2368.000000L320.000000 -2176.000000ZM1152.000000 -2080.000000L1152.000000 -1504.000000C1152.000000 -1477.333333 1142.666667 -1454.666667 1124.000000 -1436.000000C1105.333333 -1417.333333 1082.666667 -1408.000000 1056.000000 -1408.000000L96.000000 -1408.000000C69.333333 -1408.000000 46.666667 -1417.333333 28.000000 -1436.000000C9.333333 -1454.666667 0.000000 -1477.333333 0.000000 -1504.000000L0.000000 -2080.000000C0.000000 -2106.666667 9.333333 -2129.333333 28.000000 -2148.000000C46.666667 -2166.666667 69.333333 -2176.000000 96.000000 -2176.000000L128.000000 -2176.000000L128.000000 -2368.000000C128.000000 -2490.666667 172.000000 -2596.000000 260.000000 -2684.000000C348.000000 -2772.000000 453.333333 -2816.000000 576.000000 -2816.000000C698.666667 -2816.000000 804.000000 -2772.000000 892.000000 -2684.000000C980.000000 -2596.000000 1024.000000 -2490.666667 1024.000000 -2368.000000L1024.000000 -2176.000000L1056.000000 -2176.000000C1082.666667 -2176.000000 1105.333333 -2166.666667 1124.000000 -2148.000000C1142.666667 -2129.333333 1152.000000 -2106.666667 1152.000000 -2080.000000ZM1152.000000 -2080.000000"></path></svg>
